<svg width="21" height="19" viewBox="0 0 21 19" fill="none" xmlns="http://www.w3.org/2000/svg">
<path d="M10.7023 0C8.11051 0 5.62458 1.00061 3.79203 2.78156C1.95935 4.56266 0.929688 6.97818 0.929688 9.49681C0.929688 12.0154 1.95935 14.4312 3.79203 16.2121C5.62485 17.993 8.11051 18.9936 10.7023 18.9936C11.0197 18.9936 11.313 18.829 11.4717 18.5619C11.6304 18.2948 11.6304 17.9657 11.4717 17.6986C11.313 17.4315 11.0197 17.2669 10.7023 17.2669C8.58169 17.2669 6.54791 16.4482 5.04851 14.991C3.54899 13.5338 2.70658 11.5575 2.70658 9.49681C2.70658 7.43614 3.54899 5.45967 5.04851 4.00258C6.54802 2.54539 8.58177 1.72675 10.7023 1.72675C12.8228 1.72675 14.8567 2.54539 16.3561 4.00258C17.8556 5.45978 18.698 7.43614 18.698 9.49681V11.9634C18.698 12.5362 18.3836 13.0655 17.8731 13.3518C17.3627 13.6383 16.7337 13.6383 16.2233 13.3518C15.7128 13.0655 15.3984 12.5362 15.3984 11.9634V5.79653C15.3984 5.48809 15.2291 5.20307 14.9541 5.04885C14.6793 4.89463 14.3406 4.89463 14.0658 5.04885C13.7909 5.20307 13.6215 5.48809 13.6215 5.79653V5.95118C12.797 5.29715 11.7665 4.93784 10.7022 4.93321C9.15629 4.92252 7.70395 5.65199 6.81855 6.8837C5.93345 8.11542 5.7288 9.69158 6.27137 11.0985C6.81394 12.5052 8.03429 13.5623 9.53437 13.9252C11.0346 14.2882 12.6225 13.9103 13.7805 12.9148C14.0949 13.9444 14.9022 14.7626 15.9475 15.1112C16.9928 15.4599 18.147 15.2958 19.0457 14.671C19.9445 14.046 20.4768 13.0374 20.4747 11.9635V9.49684C20.4716 6.97905 19.4411 4.56502 17.609 2.78492C15.7769 1.00456 13.2928 0.00305996 10.7021 2.59004e-05L10.7023 0ZM10.7023 12.3338C9.92799 12.3338 9.18553 12.0349 8.63804 11.5029C8.09056 10.9709 7.78299 10.2493 7.78299 9.49689C7.78299 8.74444 8.09057 8.02293 8.63804 7.4909C9.18552 6.95886 9.92799 6.65997 10.7023 6.65997C11.4766 6.65997 12.2191 6.95887 12.7665 7.4909C13.314 8.02293 13.6216 8.74444 13.6216 9.49689C13.6207 10.249 13.3128 10.9701 12.7655 11.5019C12.2183 12.0338 11.4763 12.333 10.7023 12.3338Z" fill="#817474"/>
</svg>
